<?xml version="1.0" encoding="UTF-8"?>
<svg width="352px" height="775px" viewBox="0 0 352 775" version="1.1" xmlns="http://www.w3.org/2000/svg" xmlns:xlink="http://www.w3.org/1999/xlink">
    <!-- Generator: Sketch 42 (36781) - http://www.bohemiancoding.com/sketch -->
    <title>Page 1</title>
    <desc>Created with Sketch.</desc>
    <defs></defs>
    <g id="Page-1" stroke="none" stroke-width="1" fill="none" fill-rule="evenodd">
        <g>
            <path d="M98.14425,306.740687 C98.1355,306.115062 98.131125,305.489437 98.122375,304.863812 C95.138625,304.684437 92.15925,304.509437 89.179875,304.330062 C89.1405,304.846312 89.1055,305.362562 89.066125,305.878812 C92.006125,307.025062 94.74925,310.039437 98.14425,306.740687 L98.14425,306.740687 Z M71.52675,237.847562 C69.1205,235.988187 67.471125,234.229437 67.059875,234.478812 C65.283625,235.576937 63.8705,237.256937 62.326125,238.726937 C63.367375,239.435687 64.522375,240.844437 65.432375,240.700062 C67.1255,240.433188 68.67425,239.260688 71.52675,237.847562 L71.52675,237.847562 Z M51.92675,304.636313 C53.768625,306.933187 55.063625,309.479438 55.8205,309.330688 C58.589875,308.779437 61.18425,307.331313 63.84425,306.220062 C63.70425,305.690688 63.568625,305.165687 63.428625,304.636313 L51.92675,304.636313 Z M275.449875,301.503812 C275.896125,301.958812 276.342375,302.413812 276.788625,302.873187 C277.34425,305.940062 277.90425,309.011312 278.739875,313.570062 C280.463625,310.078813 282.008,308.061937 282.397375,305.839437 C282.73425,303.905687 281.77175,301.740062 281.382375,299.679437 L275.449875,301.503812 Z M270.7205,310.358812 C269.316125,307.620062 267.43925,302.041937 266.349875,302.190687 C262.45175,302.724437 260.99925,300.532562 258.728625,298.568187 C257.748625,297.719437 255.499875,298.139437 253.889875,298.380062 C253.518,298.432562 253.041125,300.178187 253.21175,301.026937 C253.73675,303.616937 266.936125,311.785062 269.639875,311.347562 C269.7755,311.325687 269.884875,311.133187 270.7205,310.358812 L270.7205,310.358812 Z M117.407375,305.030062 C118.081125,301.188812 118.308625,297.172563 115.20675,292.933187 C102.948,276.185687 86.073625,270.279437 66.18925,271.425687 C51.9705,272.252562 40.2455,278.049437 32.36175,290.391313 C28.33675,296.686937 24.31175,302.986938 20.492375,309.405062 C19.363625,311.308188 18.943625,313.631313 18.143,315.932563 C22.014875,316.553813 24.876125,317.013188 28.2055,317.551313 C28.013,313.158813 27.82925,309.037563 27.6105,304.155063 C57.6755,301.149437 87.2155,298.948812 117.407375,305.030062 L117.407375,305.030062 Z M132.46175,38.3519375 C126.813625,37.0744375 123.67675,29.4488125 126.93175,23.7000625 C133.297375,12.4563125 143.11925,5.7494375 155.7105,2.9975625 C160.107375,2.0350625 164.517375,-0.0124375 168.86175,0.1494375 C180.683,0.6044375 190.749875,5.3469375 198.633625,14.5213125 C207.409875,24.7325625 210.804875,37.2188125 213.87175,49.7969375 C218.286125,67.9225625 224.79175,85.2869375 233.887375,101.470062 C237.53175,107.949437 243.44675,113.321937 248.95925,118.536938 C258.063625,127.151313 267.588,135.336937 277.121125,143.491937 C282.13925,147.783813 287.148625,152.338188 292.853625,155.536313 C311.6005,166.036312 327.031125,180.342562 341.232375,196.145062 C343.2755,198.420062 344.434875,201.478187 346.009875,204.177562 L346.163,204.107563 C344.172375,202.178187 342.33925,200.047562 340.164875,198.358812 C330.286125,190.671938 320.1755,183.278188 310.428,175.429437 C305.7555,171.666937 300.6105,170.284437 294.888,170.297562 C291.4055,170.301938 289.9705,172.296937 291.322375,175.455687 C292.088,177.249437 293.509875,179.139437 295.154875,180.119437 C305.43175,186.261937 315.84425,192.185687 326.252375,198.109437 C327.284875,198.700062 328.84675,198.520687 329.673625,199.251312 C330.854875,200.288187 331.5855,201.836938 332.50425,203.166937 L331.362375,203.945687 C324.428,201.618187 317.48925,199.290687 310.5505,196.963187 C310.05175,197.549437 309.548625,198.135687 309.049875,198.721937 C310.756125,200.953188 312.147375,203.595687 314.278,205.297562 C316.08925,206.750062 318.793,207.047562 321.054875,207.979437 C329.9405,211.645687 330.9905,216.326937 325.38175,223.528187 C319.83425,230.650687 314.42675,237.974437 309.881125,245.748812 C303.393,256.843812 297.779875,268.455062 291.7205,279.803812 C289.82175,283.347562 289.152375,286.690062 290.4255,290.789437 C291.02925,292.736312 289.572375,295.518812 288.601125,297.723812 C287.288625,300.707562 285.538625,303.498812 283.981125,306.373187 C284.4405,306.653187 284.899875,306.933187 285.35925,307.213187 C286.728625,305.769437 288.093625,304.330062 289.463,302.886312 L289.31425,302.733187 C288.17675,304.981937 287.328,307.440687 285.844875,309.431312 C283.513,312.568187 280.778625,315.416312 278.153625,318.330062 C277.71175,318.815687 276.99425,319.218187 276.351125,319.318812 C271.718,320.045062 267.076125,320.753812 262.41675,321.322562 C259.332375,321.694437 257.582375,320.661937 257.468625,317.039437 C257.16675,307.130062 251.12925,301.153812 242.843,296.988812 C238.4855,294.801312 238.437375,294.893187 237.943,289.385062 C245.26675,286.668187 242.523625,298.738812 249.532375,296.848812 C248.709875,294.980687 247.913625,293.178187 246.553,290.106937 C249.628625,291.380063 252.017375,292.005687 254.012375,293.261312 C261.1655,297.763187 269.167375,296.748187 273.94925,289.599437 C282.5855,276.688812 290.639875,263.393187 299.337375,250.530687 C305.353,241.636313 309.776125,232.085687 313.407375,222.062562 C313.888625,220.728187 315.402375,219.774437 316.8155,218.230062 C314.448625,217.035687 312.016125,216.173812 309.99925,214.730063 C296.36675,204.986937 283.132375,194.644437 269.128,185.474437 C261.423625,180.430062 258.21675,174.808188 259.6955,165.681937 C261.554875,154.184438 259.139875,143.500687 251.733,134.103187 C249.2655,130.970687 247.4455,127.295687 245.498625,123.778187 C239.658,113.212562 230.943,107.328187 218.71925,106.737563 C217.218625,106.667562 215.67425,105.473187 214.348625,104.519437 C212.344875,103.080062 210.516125,101.395688 208.101125,100.240687 C210.253625,103.294437 215.897375,105.092562 209.8555,110.731937 C209.51425,104.886938 199.67925,106.702562 201.967375,98.5038125 C203.078625,98.7488125 204.093625,98.9719375 205.113,99.1950625 C205.187375,98.9981875 205.266125,98.7969375 205.3405,98.5956875 C204.189875,97.9919375 203.013,96.8325625 201.888625,96.8763125 C197.0455,97.0600625 193.703,95.3406875 189.643,92.2125625 C184.0605,87.9163125 176.373625,88.9225625 169.461125,91.2106875 C167.0155,92.0200625 164.499875,92.6281875 162.067375,93.3106875 C174.47925,103.307562 172.65925,116.913812 169.658,130.751937 C169.706125,128.126937 169.653625,125.501937 169.828625,122.890062 C170.187375,117.412563 168.428625,116.178812 162.98175,116.703812 C157.69675,117.206937 151.92175,117.968187 147.096125,116.380062 C141.951125,114.682562 137.926125,115.728187 133.201125,116.913812 C118.824875,120.518812 108.377375,128.485688 103.44675,142.682562 C102.528,145.325062 102.598,148.785687 103.473,151.454438 C105.16175,156.616937 104.37425,161.381312 99.82425,164.373812 C96.543,166.535062 92.959875,168.241312 89.459875,170.048188 C84.98425,172.353812 83.56675,177.800687 80.263625,180.298812 C73.604875,185.330063 72.813,192.553187 69.978,199.085063 C68.844875,201.688187 67.584875,204.256312 66.688,206.942563 C65.3405,210.989437 63.778625,215.062562 63.236125,219.245062 C62.886125,221.957562 64.33425,223.313812 68.206125,223.038187 C75.582375,222.517562 79.918,218.282562 84.118,213.264437 C92.399875,203.372562 100.97925,193.708187 108.841125,183.492562 C114.218,176.501313 119.6955,169.203812 123.086125,161.184437 C126.349875,153.445062 127.653625,145.049438 136.80175,141.720062 C136.946125,141.667562 137.073,141.483812 137.143,141.330687 C139.5405,135.844437 144.878,135.643187 149.537375,135.113812 C155.08925,134.488187 160.768,134.969437 166.97175,134.969437 C167.58425,134.020062 168.612375,132.414437 169.644875,130.813187 C166.3155,146.567562 158.18675,159.740687 146.877375,170.818187 C141.5355,176.046312 134.924875,179.988187 128.668625,184.678188 C132.1905,188.729437 129.674875,193.572562 126.402375,199.430687 C139.999875,197.457562 140.244875,183.855687 149.2355,178.456938 C145.039875,187.360062 140.84425,196.263187 136.48675,205.511937 C139.124875,209.440687 141.96425,214.187563 145.372375,218.475062 C146.77675,220.238187 149.318625,221.800062 151.523625,222.097562 C158.1255,222.990062 162.347375,226.774437 165.663625,232.081312 C165.93925,232.518812 166.302375,232.930062 166.7005,233.253812 C179.248,243.408187 189.678,256.126312 204.277375,263.813187 C208.263,265.908812 211.872375,268.796312 215.433625,271.591937 C218.273,273.818812 220.688,274.413812 223.798625,271.968187 C227.893625,268.748187 232.308,265.930687 237.378625,263.419437 C236.90175,264.530687 236.731125,266.040062 235.899875,266.687562 C231.6255,270.012562 227.32925,273.363812 222.696125,276.128812 C221.409875,276.903187 218.609875,276.277562 217.09175,275.336937 C207.593625,269.465688 198.0605,263.598812 188.95175,257.150062 C184.336125,253.877562 180.564875,249.410687 176.43925,245.451312 C175.306125,244.370688 174.37425,243.066937 173.188625,242.056312 C167.422375,237.173812 161.59925,232.352562 155.77175,227.535687 C149.5505,225.413812 142.71675,223.641938 140.244875,216.808187 C138.503625,211.991312 135.6555,209.974437 131.836125,209.243812 C130.698625,214.069437 129.67925,218.409437 128.54175,223.252562 C131.02675,221.572562 133.034875,220.216312 135.047375,218.855687 C135.301125,219.170687 135.55925,219.485687 135.813,219.796312 C132.991125,222.766937 130.164875,225.737562 127.343,228.708187 C126.00425,225.396312 124.669875,222.080062 123.331125,218.768187 C120.63175,209.799437 117.928,200.830687 115.184875,191.717562 C116.88675,191.958187 118.168625,192.133187 119.853,192.369437 C119.42425,189.783813 119.07425,187.683812 118.593,184.774437 C92.49175,207.633812 76.334875,237.081937 56.44175,263.804437 C82.302375,256.410687 101.933,264.902562 116.506125,288.405062 C118.133625,276.299437 119.59925,265.414437 120.977375,255.176937 C121.8655,262.426312 122.828,270.244437 123.97425,279.563187 C128.222375,271.360062 131.783625,264.473812 135.441125,257.403812 C133.80925,257.027562 132.9955,256.843812 131.748625,256.559437 C134.693,254.599437 137.06425,253.024437 139.61925,251.322562 C137.65925,249.611937 136.324875,248.452562 134.5705,246.925687 C137.637375,247.135687 139.978,247.297562 142.729875,247.490062 C142.239875,244.243812 141.84175,241.583813 141.343,238.267562 C142.96175,239.453187 143.989875,240.205687 144.803625,240.800688 C148.644875,236.150062 152.25425,231.788187 155.863625,227.421937 C154.997375,230.143187 152.7005,232.164437 154.8355,235.953187 C155.84175,237.746937 152.503625,241.973187 150.666125,246.168812 C153.25175,245.009437 154.6955,244.366312 156.082375,243.745062 C153.089875,249.821937 150.18925,255.706312 147.026125,262.133187 C146.623625,260.496937 146.352375,259.398812 145.932375,257.710062 C144.453625,261.083187 143.219875,263.900687 141.986125,266.722562 C141.70175,266.643812 141.413,266.569437 141.12425,266.499437 C141.741125,263.441312 142.358,260.383187 143.036125,257.023187 C134.618625,263.183187 128.393,277.581312 130.25675,286.725062 C131.67425,285.381937 132.912375,284.209437 134.417375,282.783187 C134.0805,289.253812 123.50175,291.913812 128.406125,299.093187 C126.892375,300.186937 124.599875,300.965688 124.25425,302.265062 C123.068625,306.675062 122.569875,311.277562 121.616125,316.947562 C123.549875,314.366312 124.823,312.664437 126.3105,310.678187 C127.889875,311.168187 129.758,311.745687 132.282375,312.528812 C132.1555,309.851312 132.05925,307.869437 131.93675,305.248812 C133.713,307.725062 134.758625,310.555687 136.66175,311.369437 C138.07925,311.977562 140.61675,309.978187 142.2705,309.300062 C143.386125,309.925687 144.829875,311.465687 146.138,311.351937 C161.411125,310.052562 176.671125,308.499437 191.9355,307.025062 C195.929875,306.640062 199.95925,306.504437 203.91425,305.883187 C213.39925,304.400062 222.62175,304.732562 231.866125,307.812562 C236.76175,309.444437 242.11675,309.737562 247.274875,310.546937 C254.988,311.754437 256.073,313.320687 254.27925,322.158187 C254.2355,312.900687 247.5155,311.872562 241.263625,311.618812 C225.588,310.980062 210.21425,306.364437 194.333,308.420687 C181.05925,310.135687 167.72425,311.360687 154.428625,312.931312 C146.138,313.906937 137.878,315.118812 130.952375,316.041937 C129.377375,317.328187 128.178625,317.844437 127.82425,318.701937 C127.224875,320.141312 127.172375,321.803812 127.10675,322.175687 C125.361125,323.015687 123.716125,323.260687 123.191125,324.157562 C121.08675,327.753812 119.297375,331.538187 117.459875,335.283187 C114.9355,340.423812 112.157375,345.472562 110.101125,350.796937 C108.793,354.200687 108.59175,358.037562 107.178625,361.620687 C107.178625,354.143812 107.05175,346.662562 107.29675,339.194437 C107.344875,337.881937 108.972375,336.630687 109.843,335.331312 C113.426125,329.980687 116.751125,324.529437 116.913,316.033187 C105.122375,330.103187 90.737375,336.110062 74.392375,337.238812 C58.08675,338.367562 42.538,336.223812 30.082375,323.146937 C30.607375,324.568812 31.044875,326.030062 31.67925,327.395062 C32.339875,328.816937 33.42925,330.072562 33.897375,331.542562 C34.378625,333.060687 34.33925,334.745062 34.527375,336.359437 C33.07925,336.473187 31.57425,336.888812 30.19175,336.630687 C28.72175,336.355062 27.238625,335.637562 26.0005,334.766937 C23.038625,332.688812 19.9105,330.702562 17.421125,328.125687 C15.12425,325.745687 13.571125,322.652562 11.689875,319.874437 C12.039875,319.520062 12.3855,319.170062 12.7355,318.820062 L2.336125,318.820062 C4.41425,314.930687 6.72425,312.060687 7.437375,308.836312 C8.058625,306.036312 6.877375,302.833812 6.422375,299.233187 C8.487375,301.000687 10.447375,302.671937 12.578,304.496312 C13.4705,303.551312 14.192375,303.021937 14.608,302.313187 C21.087375,291.261937 31.163,283.592562 39.95675,274.663187 C45.18925,269.347562 48.803,262.430687 53.059875,256.178812 C54.508,254.048187 56.03925,251.865062 56.9055,249.480687 C57.54425,247.726313 57.846125,244.274437 57.10675,243.893812 C54.65675,242.633812 51.68175,242.270687 48.868625,241.898812 C48.068,241.793812 47.118625,242.835062 45.758,243.631312 C45.45175,241.653812 45.20675,240.100687 44.659875,236.583187 C38.569875,243.981312 33.389875,250.276937 28.209875,256.572562 C27.733,256.191937 27.25175,255.806937 26.774875,255.426312 C30.677375,249.550688 34.711125,243.758187 38.464875,237.781937 C50.3605,218.842562 62.116125,199.811312 74.0205,180.871937 C76.527375,176.881937 79.0605,172.800062 82.232375,169.356937 C89.508,161.451312 93.484875,151.900687 97.719875,142.236312 C102.821125,130.594437 109.112375,119.446937 115.3555,108.351937 C117.066125,105.315687 120.041125,102.327562 123.164875,100.914437 C127.7455,98.8363125 129.99425,95.9838125 130.304875,91.1669375 C130.353,90.3838125 131.039875,89.6444375 132.177375,87.4306875 C133.8355,90.6069375 134.98175,92.8031875 136.228625,95.1919375 C139.0155,94.1419375 142.1305,93.2144375 145.00925,91.8013125 C146.8205,90.9088125 149.607375,89.3556875 149.668625,87.9950625 C149.957375,81.3800625 155.601125,80.1638125 159.538625,77.3025625 C165.409875,73.0238125 172.619875,69.9700625 172.43175,62.6944375 C176.461125,61.7625625 179.51925,61.4125625 182.201125,60.2138125 C182.944875,59.8856875 182.568625,57.0419375 182.761125,54.6619375 C179.707375,55.9656875 177.708,56.8188125 175.166125,57.9081875 C175.078625,53.8306875 178.604875,48.8125625 170.7605,47.4388125 C170.117375,48.7031875 169.07175,50.7419375 168.14425,52.5663125 C162.242375,49.1188125 158.444875,46.3013125 159.07925,40.0756875 C159.18425,39.0650625 156.47175,37.2056875 154.769875,36.6938125 C151.392375,35.6788125 147.7305,35.6306875 144.348625,34.6463125 C139.501125,33.2331875 134.99925,34.5238125 132.07675,38.7369375 C132.173,38.5750625 132.299875,38.4481875 132.46175,38.3519375 L132.46175,38.3519375 Z" id="Fill-4" fill="#000000"></path>
            <path d="M134.679875,491.063375 C136.534875,489.44025 138.39425,487.817125 141.119875,485.43275 C137.563,485.06525 135.108625,484.8115 130.943625,484.387125 C132.733,487.432125 133.769875,489.19525 134.80675,490.967125 C135.073625,493.124 135.3405,495.28525 135.607375,497.442125 C136.2155,497.450875 136.81925,497.459625 137.423,497.468375 C138.914875,494.74275 140.402375,492.017125 142.36675,488.4165 C139.116125,489.5365 136.884875,490.3065 134.679875,491.063375 M140.433,481.924 C137.8605,480.117125 136.03175,478.83525 134.207375,477.553375 C134.303625,477.31275 134.399875,477.080875 134.496125,476.844625 C136.884875,477.719625 139.26925,478.594625 142.169875,479.6665 C141.889875,477.43525 141.688625,475.812125 141.2905,472.627125 C143.2155,475.672125 144.29175,477.374 145.844875,479.837125 C146.999875,476.73525 147.93175,474.2415 148.863625,471.752125 C149.161125,471.774 149.458625,471.795875 149.75175,471.81775 C149.546125,474.88025 149.344875,477.94275 149.08675,481.788375 C152.0705,481.4865 154.831125,481.2065 157.596125,480.9265 C157.653,481.14525 157.709875,481.368375 157.76675,481.5915 C155.618625,482.589 153.474875,483.590875 150.368625,485.043375 C153.579875,486.509 156.0955,487.659625 158.60675,488.8015 C158.541125,489.03775 158.4755,489.278375 158.418625,489.514625 C155.73675,489.1515 153.05925,488.784 149.729875,488.33775 C150.408,490.625875 150.998625,492.638375 151.58925,494.650875 L151.051125,494.9965 C150.167375,493.898375 149.283625,492.80025 147.918625,491.107125 C148.1855,493.924625 148.399875,496.16025 148.609875,498.40025 C148.33425,498.479 148.058625,498.562125 147.783,498.640875 C146.991125,496.365875 146.19925,494.0865 145.372375,491.724 C137.462375,497.63025 136.946125,499.909625 141.49175,507.789 C142.624875,509.749 144.353,511.63025 144.698625,513.734625 C145.801125,520.43275 150.27675,521.9815 156.021125,522.02525 C160.159875,522.055875 164.303,522.029625 169.032375,522.029625 C168.8005,524.645875 168.936125,526.220875 168.49425,527.620875 C164.48675,540.374 166.28925,553.149 167.7855,566.042125 C170.143625,586.3115 169.548625,606.204625 163.428,626.194 C158.654875,641.773375 156.791125,658.284625 154.21425,674.4765 C153.378625,679.704625 151.11675,681.5815 146.383,680.9165 C140.017375,680.010875 133.673625,678.890875 127.364875,677.648375 C123.843,676.957125 122.38175,674.743375 122.281125,670.9065 C121.568,644.512125 120.102375,618.1265 119.958,591.7365 C119.87925,577.110875 122.018625,562.48525 122.83675,547.8465 C123.0205,544.574 121.988,541.200875 121.2705,537.93275 C120.207375,533.059 118.728625,528.27275 117.818625,523.377125 C117.337375,520.760875 118.8205,519.369625 121.743,519.1465 C129.464875,518.56025 132.46175,512.045875 136.34675,506.80025 C136.779875,506.214 135.992375,504.582125 135.55925,503.523375 C130.81675,491.9165 125.68925,480.537125 123.878,467.858375 C123.0905,462.328375 119.761125,457.1615 117.599875,451.819625 C116.76425,449.754625 115.97675,447.66775 115.87175,445.2965 C119.4855,453.989625 127.54425,460.718375 126.874875,471.288375 C126.839875,471.813375 126.874875,472.34275 126.89675,472.86775 C127.1855,481.644 129.6005,483.398375 140.433,481.924" id="Fill-6" fill="#000000"></path>
            <path d="M259.034438,526.580063 C259.148188,525.744438 259.270688,524.904438 259.388813,524.068813 C256.763812,525.013813 253.661938,525.376938 251.636312,527.043813 C248.705062,529.450063 246.136938,532.630688 249.155688,536.961938 C250.735062,539.228188 252.012563,541.704438 253.373188,544.119438 C257.288813,551.053813 261.143188,558.018813 265.093813,564.935688 C266.012563,566.541313 267.193812,567.998188 268.252563,569.520688 C269.070687,567.617563 270.938813,565.447563 270.540687,563.841938 C267.898187,553.267563 264.778813,542.815688 261.799438,532.324438 C261.707562,532.009438 261.401313,531.760063 261.256937,531.449438 C260.504437,529.830688 259.773812,528.203188 259.034438,526.580063 M218.176312,482.926313 C222.507562,481.867563 223.190063,482.760063 222.175062,487.121937 C220.998187,492.201312 221.409438,497.696312 221.523188,503.003188 C221.601937,506.805063 222.319437,510.602562 222.787563,514.680063 C222.345687,514.793813 221.138187,515.100063 219.926312,515.406313 C219.930687,515.878813 219.943812,516.346937 219.956937,516.819438 C234.635063,517.768812 249.313188,518.718187 264.476937,519.702562 C261.707562,526.431312 264.271313,532.044437 267.456312,537.202562 C278.892562,555.713188 284.041937,575.930063 284.597562,597.490063 C285.091938,616.726938 285.420063,635.968187 286.098187,655.196312 C286.264437,659.916938 284.225687,662.161313 279.981937,662.502563 C274.093187,662.983812 268.165062,663.360062 262.280687,663.101937 C260.583188,663.027563 257.980062,660.927563 257.481312,659.251937 C251.015062,637.648187 244.640687,616.005063 238.730062,594.243812 C236.726312,586.854438 235.615063,579.145688 234.919437,571.506938 C233.882563,560.092562 229.148812,549.955688 225.136937,539.534437 C223.124437,534.315063 220.731313,529.200688 219.208813,523.841312 C217.555063,517.991938 214.610688,514.645062 208.236312,513.761313 C199.355062,512.527562 198.838812,510.948188 200.212562,501.848187 C204.342562,474.416938 208.848812,447.020688 212.046938,419.484438 C214.098812,401.831313 214.020062,383.941937 215.056937,366.170688 C215.301938,361.970688 216.203187,357.805688 217.944437,353.811312 C217.944437,365.720063 218.010063,377.628813 217.909437,389.537563 C217.878813,393.015688 217.231313,396.485063 217.121938,399.967563 C216.916313,406.390062 216.964437,412.825688 216.789437,419.256937 C216.334437,436.170688 215.805062,453.080063 215.345687,469.993812 C215.253812,473.248813 215.332562,476.503813 216.115687,479.990688 C217.152563,476.595688 218.180687,473.209438 219.213187,469.818812 C219.646312,469.936937 220.083812,470.055063 220.512563,470.173188 C219.751312,474.351313 218.985688,478.520688 218.176312,482.926313" id="Fill-8" fill="#000000"></path>
            <path d="M169.64575,130.813625 C168.61325,132.414875 167.58075,134.0205 166.972625,134.969875 C160.768875,134.969875 155.090125,134.488625 149.533875,135.11425 C144.878875,135.643625 139.541375,135.8405 137.143875,141.331125 C137.073875,141.479875 136.947,141.663625 136.802625,141.7205 C127.650125,145.049875 126.35075,153.4455 123.082625,161.1805 C119.696375,169.20425 114.218875,176.50175 108.842,183.493 C100.980125,193.708625 92.40075,203.368625 84.118875,213.264875 C79.918875,218.283 75.58325,222.518 68.202625,223.038625 C64.335125,223.31425 62.887,221.958 63.237,219.2455 C63.7795,215.063 65.341375,210.989875 66.688875,206.943 C67.58575,204.25675 68.84575,201.688625 69.9745,199.081125 C72.813875,192.553625 73.601375,185.3305 80.2645,180.29925 C83.567625,177.801125 84.98075,172.35425 89.456375,170.048625 C92.96075,168.24175 96.543875,166.5355 99.825125,164.37425 C104.375125,161.38175 105.15825,156.617375 103.473875,151.454875 C102.5945,148.786125 102.528875,145.321125 103.447625,142.683 C108.37825,128.486125 118.821375,120.51925 133.202,116.91425 C137.927,115.728625 141.947625,114.683 147.097,116.3805 C151.91825,117.968625 157.697625,117.207375 162.982625,116.699875 C168.4295,116.17925 170.18825,117.413 169.8295,122.886125 C169.6545,125.502375 169.707,128.127375 169.658875,130.752375 C169.658875,130.75675 169.64575,130.813625 169.64575,130.813625" id="Fill-10" fill="#FFFFFF"></path>
            <path d="M146.739125,759.711125 C138.400375,759.32175 130.061625,758.76175 121.7185,758.608625 C115.974125,758.503625 110.221,759.028625 104.47225,759.133625 C101.3485,759.1905 97.9885,759.649875 95.136,758.70925 C88.941,756.6705 82.886,755.117375 76.22725,755.6905 C72.460375,756.01425 70.146,753.839875 70.535375,749.412375 C70.762875,746.787375 70.10225,744.083625 69.691,739.853 C72.871625,744.459875 75.111625,747.70175 77.640375,751.368 C83.476625,747.881125 88.30225,750.15175 93.55225,753.3805 C96.326,755.078 100.670375,755.204875 104.08725,754.66675 C111.835375,753.44175 119.38225,750.619875 127.1435,749.919875 C132.205375,749.4605 137.639125,751.162375 142.626625,752.768 C144.661,753.42425 145.951625,756.39925 147.5835,758.32425 C147.299125,758.783625 147.019125,759.247375 146.739125,759.711125" id="Fill-12" fill="#000000"></path>
            <path d="M285.826937,713.86375 C285.030687,714.113125 284.243187,714.358125 283.446937,714.603125 C284.418187,718.024375 285.380687,721.445625 286.351938,724.87125 C287.156937,724.62625 287.961937,724.376875 288.766937,724.13625 C287.782562,720.70625 286.806938,717.285 285.826937,713.86375 M291.947563,699.885625 C292.201312,708.495625 292.529437,717.114375 292.678188,725.733125 C292.765688,730.790625 292.223187,735.87875 292.595062,740.914375 C292.953813,745.753125 291.365688,747.84 287.270688,747.240625 C284.685063,740.21 281.998812,733.67375 280.003812,726.93625 C279.452562,725.0725 280.975063,722.591875 281.543813,720.395625 C281.163187,720.106875 280.782562,719.81375 280.401938,719.529375 C279.054438,720.61875 277.711312,721.7125 276.350687,722.810625 C267.080062,716.816875 261.799437,709.40125 261.497562,700.96625 C266.174437,705.345625 270.545063,709.221875 274.635687,713.378125 C276.328812,715.093125 277.488187,716.589375 279.544437,713.98625 C279.920688,713.509375 280.708188,713.281875 281.351313,713.089375 C290.998188,710.215 291.002563,710.219375 291.947563,699.885625" id="Fill-14" fill="#000000"></path>
            <path d="M346.009,204.17625 C350.134625,208.704375 353.520875,213.4775 351.272125,220.11 C350.992125,220.9325 350.88275,221.960625 350.32275,222.511875 C339.704625,232.906875 336.257125,247.738125 327.67775,259.275 C317.0815,273.524375 305.55775,287.09125 294.257125,300.806875 C293.277125,301.996875 290.993375,302.115 289.313375,302.731875 L289.462125,302.885 C290.10525,301.52 290.494625,299.945 291.422125,298.81625 C300.198375,288.2025 309.683375,278.109375 317.72025,266.970625 C325.17525,256.628125 331.540875,245.419375 337.534625,234.13625 C340.439625,228.6675 342.688375,223.281875 348.529,220.1975 C351.342125,218.714375 351.954625,216.33 349.942125,213.18 C348.209625,210.45875 347.387125,207.155625 346.162125,204.10625 L346.009,204.17625 Z" id="Fill-16" fill="#000000"></path>
            <path d="M68.230625,754.11025 C73.988125,766.78025 85.415625,767.53275 96.965625,768.499625 C105.470625,769.208375 113.9625,770.389625 122.37125,771.850875 C131.36625,773.408375 139.6525,774.432125 147.356875,767.139 C150.33625,764.3215 156.09375,764.448375 160.796875,763.179625 C162.205625,768.674625 158.885,771.938375 154.540625,772.795875 C147.44875,774.20025 140.01125,775.329 132.88,774.712125 C117.78625,773.41275 102.793125,770.914625 87.760625,768.902125 C79.255625,767.764625 71.608125,765.32775 68.6025,756.022125 C68.405625,755.409625 68.34875,754.749 68.230625,754.11025" id="Fill-18" fill="#000000"></path>
            <path d="M132.375125,85.4251875 C134.97825,84.3795625 136.99075,83.5701875 139.47575,82.5726875 C136.04575,81.7939375 131.487,81.9514375 130.6995,80.3020625 C129.487625,77.7733125 130.861375,74.0020625 131.1895,70.1170625 C129.653875,69.7889375 127.772625,69.3820625 125.891375,68.9795625 C125.86075,68.6164375 125.830125,68.2533125 125.7995,67.8901875 C127.917,67.5620625 130.04325,67.2426875 132.978875,66.7920625 C131.395125,65.3701875 130.257625,64.3464375 128.80075,63.0339375 C133.845125,61.9751875 136.48325,64.2195625 138.4345,68.2226875 C140.482,72.4095625 143.041375,76.3514375 144.97075,80.5864375 C145.47825,81.6933125 144.983875,84.2176875 144.091375,84.8214375 C141.938875,86.2870625 141.68075,91.2001875 137.41075,88.9470625 C135.787625,88.0851875 134.370125,86.8383125 132.375125,85.4251875" id="Fill-20" fill="#000000"></path>
            <path d="M132.460438,38.35325 C132.298563,38.445125 132.171687,38.576375 132.075437,38.73825 C135.837937,35.317 139.871688,35.76325 145.029812,38.077625 C141.446687,38.506375 138.782312,38.82575 136.117937,39.145125 C136.008563,39.573875 135.894812,40.002625 135.785438,40.431375 C139.106062,42.667 142.422313,44.902625 145.034188,46.657 C143.612313,50.65575 142.754813,54.22575 141.035438,57.318875 C140.387937,58.491375 137.430438,59.471375 136.082938,58.98575 C128.886063,56.39575 127.044188,45.1345 132.460438,38.35325" id="Fill-22" fill="#000000"></path>
            <path d="M265.686625,757.67325 C270.726625,759.75575 274.987875,758.872 279.144125,755.245125 C280.465375,754.098875 283.016,754.308875 285.01975,753.993875 C288.43225,753.45575 291.849125,752.768875 295.29225,752.59825 C296.976625,752.51075 298.72225,753.45575 300.43725,753.932625 C299.584125,755.97575 299.116,759.497625 297.816625,759.8345 C286.984125,762.647625 276.037875,764.35825 265.686625,757.67325" id="Fill-24" fill="#000000"></path>
            <path d="M147.685437,737.469062 C139.749187,732.079062 129.979812,729.025312 124.839187,719.500937 C126.090437,718.494687 127.328562,717.510312 127.958562,717.002812 C133.243562,719.229687 138.690437,720.752187 143.161687,723.727187 C145.519812,725.302187 146.407937,729.344687 147.501687,732.433437 C148.048562,733.964687 147.571687,735.867812 147.554187,737.600312 L147.685437,737.469062 Z" id="Fill-26" fill="#000000"></path>
            <path d="M73.748375,353.817 C54.865875,363.08325 41.478375,362.27825 34.06275,354.206375 C42.62025,354.206375 51.59775,354.320125 60.570875,354.153875 C64.044625,354.08825 67.500875,353.35325 70.974625,353.016375 C71.5915,352.9595 72.2565,353.366375 73.748375,353.817" id="Fill-28" fill="#000000"></path>
            <path d="M147.552875,737.601187 C150.331,737.938062 151.556,736.870562 150.7685,734.018062 C150.090375,731.537437 149.399125,729.065562 148.4585,725.683687 C150.19975,726.073062 152.006625,725.954937 152.426625,726.659312 C157.67225,735.422437 158.009125,745.218062 157.6285,755.009312 C157.571625,756.488062 155.1785,757.879312 154.0235,759.143687 C151.726625,751.303687 149.705375,744.386812 147.684125,737.469937 L147.552875,737.601187 Z" id="Fill-30" fill="#000000"></path>
            <path d="M20.3983125,347.062 C13.7876875,340.897625 7.1770625,334.737625 0.5664375,328.568875 C1.0739375,327.798875 1.5814375,327.020125 2.0845625,326.250125 C13.1795625,338.09325 26.8383125,342.7395 42.4964375,342.32825 C40.6589375,342.62575 38.8170625,342.918875 36.4589375,343.295125 C37.0233125,345.02325 37.4564375,346.33575 37.8851875,347.64825 C37.6183125,348.046375 37.3470625,348.440125 37.0801875,348.83825 C34.7833125,347.7095 32.3551875,346.786375 30.2201875,345.40825 C26.1776875,342.8095 22.6033125,343.3345 20.2670625,347.17575 L20.3983125,347.062 Z" id="Fill-32" fill="#000000"></path>
            <path d="M234.343687,725.05325 C239.514937,731.047 243.850562,736.07825 248.068062,740.965125 C244.756187,740.501375 240.459937,739.902 236.242437,739.307 C236.006187,743.612 238.644312,746.337625 246.003062,747.96075 C250.881187,749.041375 255.833687,749.78075 260.751187,750.668875 C260.681187,751.132625 260.602437,751.592 260.523687,752.051375 C254.044312,750.905125 247.376812,750.345125 241.168687,748.350125 C238.412437,747.466375 235.253687,743.975125 234.641187,741.157625 C233.573687,736.262 234.343687,730.96825 234.343687,725.05325" id="Fill-34" fill="#000000"></path>
            <path d="M119.545,743.664063 C113.84,745.917188 109.1325,748.122188 104.201875,749.570313 C101.839375,750.261563 99.0525,749.513438 96.4625,749.417188 C96.935,747.037188 97.403125,744.665938 98.041875,741.454688 C104.928125,750.366563 111.8975,742.701563 119.545,743.664063" id="Fill-36" fill="#000000"></path>
            <path d="M256.317125,686.852938 C254.7815,693.975437 252.047125,695.344812 243.81775,692.890438 C246.604625,692.207938 248.398375,691.766063 250.200875,691.324187 C250.218375,691.079187 250.235875,690.834188 250.253375,690.589188 C248.744,690.322313 247.23025,690.051063 245.712125,689.784188 C245.668375,689.351063 245.629,688.917938 245.58525,688.480437 C249.072125,687.951063 252.559,687.426063 256.317125,686.852938" id="Fill-38" fill="#000000"></path>
            <path d="M118.81,764.727062 C125.070625,765.597687 131.33125,766.468312 137.591875,767.338937 C137.451875,768.244562 137.31625,769.154562 137.180625,770.060187 C130.92875,769.137062 124.6725,768.209562 118.420625,767.286437 C118.551875,766.437687 118.683125,765.580187 118.81,764.727062" id="Fill-40" fill="#000000"></path>
            <path d="M238.531,248.306437 C241.4885,242.518312 247.880375,243.060812 252.7935,240.750812 C249.9235,246.578312 243.741625,246.521438 238.531,248.306437" id="Fill-42" fill="#000000"></path>
            <path d="M61.67425,344.223063 C68.84925,343.886188 76.02425,343.549313 83.19925,343.212438 C83.19925,343.763688 83.203625,344.314938 83.203625,344.866188 L61.67425,344.866188 L61.67425,344.223063" id="Fill-44" fill="#000000"></path>
            <path d="M20.2679375,347.1775 C24.4810625,347.8075 28.3266875,349.085 31.8398125,353.586875 C25.1154375,354.58875 23.3654375,349.806875 20.4079375,347.059375 C20.3991875,347.06375 20.2679375,347.1775 20.2679375,347.1775" id="Fill-46" fill="#000000"></path>
            <path d="M119.092187,493.699312 C119.831562,496.411812 120.570937,499.124312 121.612187,502.956812 C119.590937,502.191187 117.407812,501.893687 117.285312,501.228687 C116.852187,498.826812 117.114687,496.298062 117.114687,493.817437 C117.775312,493.778062 118.435937,493.738687 119.092187,493.699312" id="Fill-48" fill="#000000"></path>
            <path d="M143.838063,341.501375 L143.838063,351.030125 C138.653687,346.908875 139.729938,344.126375 144.091813,341.807625 C144.091813,341.80325 143.838063,341.501375 143.838063,341.501375" id="Fill-50" fill="#FFFFFF"></path>
            <path d="M127.342125,228.706438 C130.168375,225.735813 132.99025,222.769563 135.812125,219.798938 C135.558375,219.483938 135.30025,219.168938 135.0465,218.858313 C133.034,220.214563 131.025875,221.575188 128.540875,223.255188 C129.68275,218.407687 130.702125,214.072063 131.83525,209.242063 C135.654625,209.972688 138.50275,211.989563 140.244,216.806438 C142.715875,223.640188 149.554,225.416438 155.77525,227.533938 C155.797125,227.512063 155.8365,227.455188 155.849625,227.437688 C152.253375,231.786438 148.648375,236.152688 144.80275,240.798938 C143.989,240.203937 142.960875,239.451437 141.342125,238.270188 C141.840875,241.582063 142.239,244.242062 142.729,247.488313 C139.977125,247.300188 137.640875,247.138312 134.569625,246.928313 C136.324,248.455188 137.658375,249.614563 139.62275,251.320813 C137.06775,253.022687 134.6965,254.597688 131.74775,256.557688 C132.994625,256.842062 133.808375,257.030188 135.444625,257.402062 C131.78275,264.472062 128.2215,271.358313 123.973375,279.561438 C122.827125,270.247063 121.869,262.428938 120.9765,255.179563 C119.598375,265.417063 118.137125,276.297687 116.50525,288.403312 C101.932125,264.900813 82.3015,256.413313 56.440875,263.802688 C76.334,237.080187 92.49525,207.632063 118.592125,184.772688 C119.073375,187.686438 119.423375,189.786438 119.8565,192.367688 C118.16775,192.135813 116.885875,191.956438 115.184,191.720188 C117.927125,200.828937 120.630875,209.797688 123.325875,218.748938 C121.768375,215.953313 120.219625,213.183938 118.20275,209.583313 C118.819625,222.861437 118.583375,235.312687 122.9015,249.080813 C126.187125,245.458313 128.3965,243.021437 130.68025,240.505813 C130.990875,240.807687 131.664625,241.450813 132.338375,242.093938 L132.994625,241.577688 C131.6865,238.996438 130.38275,236.410813 128.6415,232.958938 C131.375875,234.415813 133.034,235.303938 134.6965,236.192063 C134.980875,235.815813 135.269625,235.439562 135.549625,235.063313 C134.210875,234.302063 132.872125,233.540812 130.675875,232.293937 C133.353375,231.681438 134.560875,231.401438 135.768375,231.125813 L135.8165,229.887688 C132.99025,229.493938 130.168375,229.100188 127.342125,228.706438" id="Fill-52" fill="#FFFFFF"></path>
            <path d="M346.162562,204.107563 C347.387562,207.152563 348.210062,210.460063 349.942562,213.176938 C351.955062,216.331313 351.342562,218.715688 348.529437,220.198813 C342.688812,223.283188 340.435687,228.664438 337.530687,234.137563 C331.541312,245.416313 325.175687,256.625063 317.720687,266.967563 C309.683812,278.110688 300.198812,288.199438 291.422562,298.817563 C290.490687,299.946313 290.105687,301.521313 289.462562,302.886313 C288.097562,304.330063 286.728187,305.769438 285.363187,307.213188 C284.899437,306.933188 284.440062,306.653188 283.980687,306.373188 C285.542562,303.498813 287.288187,300.707563 288.600687,297.723813 C289.571937,295.518813 291.028812,292.736313 290.425062,290.785063 C289.151937,286.690063 289.821312,283.347563 291.720062,279.803813 C297.779437,268.455063 303.392562,256.843813 309.880687,245.748813 C314.426312,237.974438 319.833812,230.650688 325.381312,223.528188 C330.990062,216.322563 329.940062,211.645688 321.054437,207.979438 C318.792562,207.047563 316.088812,206.750063 314.277562,205.297563 C312.146937,203.595688 310.755687,200.953188 309.049437,198.721938 C309.548187,198.135688 310.051312,197.545063 310.550062,196.963188 C317.488812,199.290688 324.427562,201.618188 331.361937,203.945688 L332.503812,203.166938 C331.585062,201.836938 330.854437,200.288188 329.673187,199.251313 C328.846312,198.520688 327.284437,198.700063 326.251937,198.109438 C315.843812,192.185688 305.431312,186.261938 295.154437,180.119438 C293.509437,179.135063 292.087562,177.249438 291.321937,175.455688 C289.970062,172.296938 291.405062,170.301938 294.887562,170.293188 C300.610062,170.284438 305.755062,171.662563 310.427562,175.429438 C320.179437,183.278188 330.285687,190.671938 340.164437,198.358813 C342.338812,200.047563 344.171937,202.178188 346.162562,204.107563" id="Fill-54" fill="#FFFFFF"></path>
            <path d="M77.3328125,279.281437 C71.6409375,277.706437 71.8203125,277.684562 72.2096875,280.882687 C72.3846875,282.330812 72.1178125,284.168313 71.3215625,285.332062 C69.0684375,288.639562 66.4390625,291.688938 63.9584375,294.838937 C64.4659375,295.202063 64.9734375,295.565187 65.4809375,295.928313 C69.4315625,290.376438 73.3821875,284.828937 77.3328125,279.281437 M62.8034375,283.516437 C63.1140625,283.542687 63.6478125,283.485812 63.6871875,283.603937 C63.8359375,284.028312 63.9671875,284.859562 63.8403125,284.916437 C59.7278125,286.679562 60.3534375,289.584562 61.7884375,293.001437 C63.8928125,289.374562 65.8528125,285.992687 68.4165625,281.578312 C65.8090625,282.470812 64.2953125,282.991437 62.7815625,283.512062 C63.2628125,280.405812 69.8778125,281.958937 67.9440625,276.472687 L75.0053125,276.472687 C72.4109375,275.545187 69.7334375,275.042062 67.3490625,275.663312 C63.5603125,276.656437 61.5040625,279.272687 62.8034375,283.516437 M117.407812,305.028313 C87.2159375,298.951437 57.6759375,301.147688 27.6109375,304.153313 C27.8296875,309.040188 28.0134375,313.157062 28.2059375,317.549563 C24.8765625,317.015813 22.0109375,316.556438 18.1434375,315.930813 C18.9440625,313.633938 19.3640625,311.306438 20.4928125,309.407688 C24.3078125,302.985188 28.3371875,296.689562 32.3621875,290.389562 C40.2459375,278.047687 51.9709375,272.250812 66.1896875,271.428312 C86.0740625,270.277687 102.948437,276.183937 115.207187,292.935812 C118.309062,297.170813 118.081562,301.187063 117.407812,305.028313" id="Fill-56" fill="#FFFFFF"></path>
            <path d="M127.342125,228.706437 C130.168375,229.100187 132.99025,229.493937 135.8165,229.887687 L135.768375,231.125812 C134.560875,231.401438 133.353375,231.681437 130.675875,232.293937 C132.872125,233.540812 134.210875,234.302062 135.549625,235.063312 C135.269625,235.439562 134.980875,235.815812 134.6965,236.192063 C133.034,235.303937 131.375875,234.415812 128.6415,232.958937 C130.38275,236.410812 131.6865,238.996437 132.994625,241.577687 L132.338375,242.093937 C131.664625,241.450813 130.990875,240.807687 130.68025,240.505812 C128.3965,243.021437 126.187125,245.458312 122.9015,249.080813 C118.583375,235.312687 118.819625,222.861437 118.20275,209.583312 C120.219625,213.183937 121.768375,215.953312 123.325875,218.748937 C124.669,222.082687 126.003375,225.394562 127.342125,228.706437" id="Fill-58" fill="#000000"></path>
            <path d="M270.719625,310.35925 C269.888375,311.133625 269.774625,311.326125 269.639,311.348 C266.93525,311.7855 253.735875,303.617375 253.210875,301.027375 C253.04025,300.178625 253.517125,298.433 253.889,298.3805 C255.499,298.139875 257.74775,297.719875 258.72775,298.568625 C260.998375,300.528625 262.450875,302.7205 266.349,302.191125 C267.438375,302.042375 269.31525,307.6205 270.719625,310.35925" id="Fill-60" fill="#FFFFFF"></path>
            <path d="M275.449,301.504687 L281.3815,299.680312 C281.770875,301.740937 282.733375,303.906562 282.3965,305.840312 C282.007125,308.062812 280.46275,310.075312 278.739,313.566562 C277.90775,309.007812 277.34775,305.940937 276.78775,302.869687 C276.3415,302.414687 275.899625,301.959687 275.449,301.504687" id="Fill-62" fill="#FFFFFF"></path>
            <path d="M51.92675,304.636312 L63.428625,304.636312 C63.568625,305.165687 63.70425,305.690687 63.84425,306.220062 C61.18425,307.331312 58.589875,308.779437 55.8205,309.330687 C55.063625,309.479437 53.768625,306.933187 51.92675,304.636312" id="Fill-64" fill="#FFFFFF"></path>
            <path d="M71.52675,237.849312 C68.67425,239.258062 67.1255,240.430562 65.432375,240.697437 C64.522375,240.846187 63.367375,239.433062 62.326125,238.724312 C63.8705,237.258687 65.283625,235.574312 67.059875,234.480562 C67.471125,234.226812 69.1205,235.989937 71.52675,237.849312" id="Fill-66" fill="#FFFFFF"></path>
            <path d="M98.14425,306.740687 C94.74925,310.039437 92.006125,307.025062 89.066125,305.878812 C89.1055,305.362562 89.1405,304.846312 89.179875,304.330062 C92.15925,304.509437 95.138625,304.684437 98.122375,304.863812 C98.131125,305.489437 98.1355,306.115062 98.14425,306.740687" id="Fill-68" fill="#FFFFFF"></path>
            <path d="M134.661063,491.076062 C136.887938,490.306062 139.114813,489.536062 142.369813,488.416062 C140.401063,492.016687 138.913563,494.742312 137.426063,497.467937 C136.822313,497.459187 136.214188,497.450437 135.610438,497.441687 C135.343563,495.284812 135.076688,493.123562 134.809813,490.966687 L134.661063,491.076062 Z" id="Fill-70" fill="#FFFFFF"></path>
            <path d="M134.808063,490.964937 C133.771188,489.197437 132.729938,487.429937 130.940563,484.384937 C135.105563,484.813687 137.559938,485.063062 141.116813,485.430562 C138.391188,487.814937 136.536188,489.438062 134.668063,491.065562 C134.659313,491.074312 134.808063,490.964937 134.808063,490.964937" id="Fill-72" fill="#FFFFFF"></path>
            <path d="M259.034438,526.580062 C259.773813,528.203187 260.504438,529.830687 261.256938,531.449437 C261.401313,531.760062 261.707563,532.009437 261.799438,532.324437 C264.778813,542.815687 267.898188,553.267562 270.540688,563.841937 C270.938813,565.447562 269.070688,567.617562 268.252563,569.520687 C267.193813,567.998187 266.012563,566.541312 265.093813,564.935687 C261.143188,558.018812 257.288813,551.053812 253.373188,544.119437 C252.012563,541.704437 250.735063,539.228187 249.155688,536.961937 C246.136938,532.630687 248.705063,529.450062 251.636313,527.043812 C253.661938,525.376937 256.763813,525.013812 259.388813,524.068812 C259.270688,524.904437 259.148188,525.744437 259.034438,526.580062" id="Fill-74" fill="#FFFFFF"></path>
            <path d="M285.826938,713.86375 C286.806938,717.285 287.782563,720.70625 288.766938,724.13625 C287.961938,724.376875 287.156938,724.62625 286.351938,724.87125 C285.380688,721.445625 284.418188,718.024375 283.446938,714.603125 C284.243188,714.358125 285.030688,714.113125 285.826938,713.86375" id="Fill-76" fill="#FFFFFF"></path>
            <path d="M77.3328125,279.281437 C73.3821875,284.828937 69.4315625,290.376437 65.4809375,295.928312 C64.9734375,295.565187 64.4659375,295.202062 63.9584375,294.838937 C66.4390625,291.688937 69.0684375,288.639562 71.3215625,285.332062 C72.1178125,284.168312 72.3846875,282.330812 72.2096875,280.882687 C71.8203125,277.684562 71.6409375,277.706437 77.3328125,279.281437" id="Fill-78" fill="#000000"></path>
            <path d="M62.796,283.51775 C61.505375,279.269625 63.561625,276.65775 67.350375,275.664625 C69.730375,275.043375 72.41225,275.5465 75.006625,276.474 L67.945375,276.474 C69.879125,281.96025 63.264125,280.407125 62.782875,283.513375 L62.796,283.51775 Z" id="Fill-80" fill="#000000"></path>
            <path d="M62.781125,283.511188 C64.294875,282.990563 65.808625,282.474313 68.4205,281.577438 C65.85675,285.991813 63.892375,289.373688 61.788,293.000563 C60.353,289.588063 59.727375,286.678688 63.839875,284.915563 C63.96675,284.863063 63.8355,284.027438 63.691125,283.603063 C63.647375,283.489313 63.113625,283.541813 62.798625,283.515563 C62.79425,283.515563 62.781125,283.511188 62.781125,283.511188" id="Fill-82" fill="#000000"></path>
        </g>
    </g>
</svg>