<svg xmlns="http://www.w3.org/2000/svg" width="352" height="775" viewBox="0 0 352 775">
  <g fill="none" fill-rule="evenodd">
    <path fill="#000" d="M98.1 306.7V305l-9-.6v1.6c3 1.1 5.6 4.1 9 .8zm-26.6-68.9c-2.4-1.8-4-3.6-4.4-3.3-1.8 1-3.2 2.8-4.8 4.2 1 .7 2.2 2.1 3.1 2 1.7-.3 3.3-1.4 6.1-2.9zM52 304.6c1.9 2.3 3.2 4.9 4 4.7 2.7-.5 5.3-2 8-3l-.5-1.7H52zm223.5-3.1l1.4 1.4 2 10.7c1.7-3.5 3.2-5.5 3.6-7.8.3-1.9-.6-4-1-6.1l-6 1.8zm-4.7 8.9c-1.4-2.8-3.3-8.4-4.4-8.2-3.8.5-5.3-1.7-7.6-3.6-1-.9-3.2-.5-4.8-.2-.4 0-.9 1.8-.7 2.6.5 2.6 13.7 10.8 16.4 10.3.2 0 .3-.2 1.1-1zM117.4 305c.7-3.8 1-7.8-2.2-12-12.3-16.8-29.1-22.7-49-21.6-14.2.9-26 6.6-33.8 19l-12 19c-1 2-1.5 4.2-2.3 6.5l10.1 1.7-.6-13.4c30-3 59.6-5.3 89.8.8zm15-266.6c-5.6-1.3-8.7-9-5.5-14.7A41.8 41.8 0 0 1 155.7 3c4.4-1 8.8-3 13.2-2.9 11.8.5 21.8 5.2 29.7 14.4 8.8 10.2 12.2 22.7 15.3 35.3a203 203 0 0 0 20 51.7c3.6 6.4 9.5 11.8 15 17 9.2 8.7 18.7 16.8 28.2 25 5 4.3 10 8.8 15.8 12a191.7 191.7 0 0 1 48.3 40.6c2 2.3 3.2 5.4 4.8 8h.2c-2-2-3.9-4-6-5.7-10-7.7-20-15.1-29.8-23a23.5 23.5 0 0 0-15.5-5.1c-3.5 0-5 2-3.6 5.2.8 1.7 2.2 3.6 3.9 4.6 10.2 6.2 20.6 12 31 18 1 .6 2.6.4 3.5 1.2 1.2 1 1.9 2.5 2.8 3.9l-1.1.7c-7-2.3-14-4.6-20.8-7l-1.6 1.8c1.8 2.3 3.1 4.9 5.3 6.6 1.8 1.5 4.5 1.7 6.8 2.7 8.8 3.6 9.9 8.3 4.3 15.5a205 205 0 0 0-15.5 22.2c-6.5 11.1-12.1 22.8-18.2 34.1a13.3 13.3 0 0 0-1.3 11c.6 2-.8 4.7-1.8 7-1.3 3-3 5.7-4.6 8.6l1.4.8 4-4.3v-.2c-1.2 2.3-2 4.7-3.6 6.7-2.3 3.2-5 6-7.6 9-.5.4-1.2.8-1.8 1l-14 2c-3 .3-4.8-.7-5-4.4-.2-9.9-6.3-15.8-14.6-20-4.3-2.2-4.4-2.1-4.9-7.6 7.4-2.7 4.6 9.3 11.6 7.4l-3-6.7c3.1 1.3 5.5 2 7.5 3.2 7.2 4.5 15.2 3.4 20-3.7 8.6-13 16.6-26.2 25.3-39a128 128 0 0 0 14.1-28.5c.5-1.4 2-2.3 3.4-3.9-2.4-1.2-4.8-2-6.8-3.5-13.6-9.7-26.9-20-40.9-29.2-7.7-5-10.9-10.7-9.4-19.8a39 39 0 0 0-8-31.6c-2.4-3.1-4.3-6.8-6.2-10.3a30.6 30.6 0 0 0-26.8-17c-1.5-.1-3-1.3-4.4-2.3-2-1.4-3.8-3.1-6.2-4.3 2.2 3 7.8 4.9 1.8 10.5-.4-5.8-10.2-4-8-12.2l3.2.7.2-.6c-1.1-.6-2.3-1.8-3.4-1.7-4.9.2-8.2-1.6-12.3-4.7-5.5-4.3-13.2-3.3-20.1-1l-7.4 2.1c12.4 10 10.6 23.6 7.6 37.5l.1-8c.4-5.4-1.4-6.6-6.8-6.1-5.3.5-11 1.3-15.9-.3-5.1-1.7-9.2-.7-13.9.5a39 39 0 0 0-29.8 25.8c-.9 2.6-.8 6 0 8.8 1.8 5.1 1 9.9-3.6 12.9-3.3 2.1-6.8 3.8-10.3 5.6-4.5 2.4-6 7.8-9.2 10.3-6.7 5-7.5 12.3-10.3 18.8-1.2 2.6-2.4 5.2-3.3 7.8-1.4 4-3 8.2-3.5 12.3-.3 2.8 1.1 4.1 5 3.8 7.4-.5 11.7-4.7 16-9.7 8.2-10 16.8-19.6 24.6-29.8 5.4-7 10.9-14.3 14.3-22.3 3.2-7.8 4.6-16.2 13.7-19.5.1 0 .3-.2.3-.4 2.4-5.5 7.8-5.7 12.4-6.2 5.6-.6 11.3-.1 17.5-.1l2.6-4.2a78.1 78.1 0 0 1-22.7 40c-5.4 5.2-12 9.2-18.2 13.9 3.5 4 1 8.9-2.3 14.7 13.6-2 13.8-15.5 22.8-21l-12.7 27.1c2.6 4 5.5 8.7 8.9 13 1.4 1.7 4 3.3 6.1 3.6 6.6.9 10.8 4.7 14.2 10 .2.4.6.8 1 1.2 12.5 10.1 23 22.8 37.6 30.5 4 2.1 7.6 5 11.1 7.8 2.9 2.2 5.3 2.8 8.4.4 4-3.3 8.5-6 13.6-8.6-.5 1.1-.7 2.6-1.5 3.3-4.3 3.3-8.6 6.7-13.2 9.4-1.3.8-4 .2-5.6-.8-9.5-5.8-19-11.7-28.1-18.1-4.7-3.3-8.4-7.8-12.6-11.7-1-1.1-2-2.4-3.2-3.4-5.8-5-11.6-9.7-17.4-14.6-6.2-2-13-3.9-15.6-10.7-1.7-4.8-4.5-6.8-8.4-7.6l-3.3 14 6.5-4.3.8.9-8.5 9-4-10-8.1-27 4.7.6-1.3-7.6c-26.1 22.8-42.3 52.3-62.2 79 25.9-7.4 45.5 1.1 60.1 24.6l4.5-33.2 3 24.4 11.4-22.2-3.7-.8 8-5.3c-2-1.7-3.4-2.8-5.1-4.4l8.1.6-1.4-9.2 3.5 2.5 11-13.4c-.8 2.7-3.1 4.8-1 8.6 1 1.7-2.3 6-4.1 10.2l5.4-2.5c-3 6.1-6 12-9 18.4l-1.2-4.4c-1.4 3.4-2.7 6.2-4 9l-.8-.2 2-9.5c-8.5 6.2-14.7 20.6-12.8 29.7l4.1-4c-.3 6.6-10.9 9.2-6 16.4-1.5 1-3.8 1.9-4.1 3.2-1.2 4.4-1.7 9-2.7 14.6l4.7-6.2 6 1.8-.4-7.3c1.8 2.5 2.9 5.4 4.8 6.2 1.4.6 4-1.4 5.6-2.1 1 .6 2.5 2.2 3.8 2 15.3-1.2 30.6-2.8 45.8-4.3 4-.4 8-.5 12-1.1a58.1 58.1 0 0 1 28 2c4.9 1.5 10.2 1.8 15.4 2.6 7.7 1.3 8.8 2.8 7 11.7 0-9.3-6.8-10.3-13-10.6-15.7-.6-31-5.2-47-3.2-13.2 1.7-26.6 3-39.9 4.5L131 316c-1.6 1.3-2.8 1.8-3.2 2.7-.6 1.4-.6 3.1-.7 3.5-1.7.8-3.4 1-4 2-2 3.6-3.8 7.3-5.6 11-2.6 5.2-5.3 10.3-7.4 15.6-1.3 3.4-1.5 7.2-3 10.8 0-7.5 0-15 .2-22.4 0-1.3 1.7-2.6 2.5-3.9 3.6-5.3 7-10.8 7.1-19.3a57.8 57.8 0 0 1-42.5 21.2c-16.3 1.2-31.9-1-44.3-14l1.6 4.2c.6 1.4 1.7 2.7 2.2 4.1.5 1.6.4 3.2.6 4.9-1.4 0-3 .5-4.3.2-1.5-.2-3-1-4.2-1.8-3-2.1-6-4.1-8.6-6.7-2.3-2.4-3.8-5.4-5.7-8.2l1-1H2.3c2.1-4 4.4-6.8 5.1-10 .7-2.9-.5-6-1-9.7l6.2 5.3c.9-1 1.6-1.5 2-2.2 6.5-11 16.6-18.7 25.4-27.6 5.2-5.4 8.8-12.3 13-18.5 1.5-2.2 3-4.3 4-6.7.5-1.8.8-5.2.1-5.6-2.4-1.3-5.4-1.6-8.2-2-.8-.1-1.8 1-3.1 1.7l-1.1-7-16.5 20-1.4-1.2c3.9-5.8 8-11.6 11.7-17.6l35.5-57c2.5-4 5-8 8.2-11.4 7.3-8 11.3-17.5 15.5-27.2 5.1-11.6 11.4-22.8 17.7-33.8 1.7-3 4.6-6 7.8-7.5 4.5-2 6.8-5 7.1-9.7 0-.8.7-1.6 1.9-3.8l4 7.8c2.8-1 6-2 8.8-3.4 1.8-.9 4.6-2.4 4.7-3.8.3-6.6 5.9-7.8 9.8-10.7 6-4.3 13.1-7.3 13-14.6 4-1 7-1.3 9.7-2.5.7-.3.4-3.2.6-5.5l-7.6 3.2c-.1-4 3.4-9-4.4-10.5l-2.7 5.2c-5.9-3.5-9.7-6.3-9-12.5 0-1-2.6-2.9-4.3-3.4-3.4-1-7-1-10.5-2-4.8-1.5-9.3-.2-12.2 4 0-.1.2-.3.4-.3zM134.7 491l6.4-5.6-10.2-1 4 6.6.7 6.4h1.8l5-9-7.7 2.7m5.7-9.2l-6.2-4.3.3-.8 7.7 2.9-1-7 4.6 7.1 3-8h1l-.7 10 8.5-.9.2.7-7.4 3.4 8.2 3.8-.2.7-8.7-1.2 1.9 6.4-.5.3-3.2-3.9.7 7.3-.8.2-2.4-6.9c-8 6-8.5 8.2-4 16 1.2 2 3 4 3.3 6 1.1 6.7 5.6 8.3 11.3 8.3h13c-.2 2.6 0 4.2-.5 5.6-4 12.8-2.2 25.5-.7 38.4 2.3 20.3 1.7 40.2-4.4 60.2-4.7 15.6-6.6 32-9.2 48.3-.8 5.2-3 7-7.8 6.4-6.4-.9-12.7-2-19-3.3-3.6-.6-5-2.9-5.1-6.7-.7-26.4-2.2-52.8-2.3-79.2-.1-14.6 2-29.2 2.8-43.9.2-3.2-.8-6.6-1.5-9.9-1-4.8-2.6-9.6-3.5-14.5-.5-2.6 1-4 4-4.3 7.7-.5 10.7-7 14.5-12.3.5-.6-.3-2.2-.7-3.3-4.8-11.6-10-23-11.7-35.6-.8-5.6-4.1-10.7-6.3-16-.8-2.1-1.6-4.2-1.7-6.6 3.6 8.7 11.6 15.4 11 26v1.6c.3 8.7 2.7 10.5 13.5 9M259 526.6l.4-2.5c-2.6 1-5.7 1.3-7.8 3-2.9 2.4-5.5 5.5-2.4 9.9 1.5 2.2 2.8 4.7 4.2 7.1 3.9 7 7.7 14 11.7 20.8 1 1.6 2 3.1 3.2 4.6.8-1.9 2.6-4 2.2-5.7-2.6-10.5-5.7-21-8.7-31.5 0-.3-.4-.5-.5-.9l-2.3-4.8m-40.8-43.7c4.3-1 5-.1 4 4.2-1.2 5.1-.8 10.6-.7 15.9.1 3.8.8 7.6 1.3 11.7-.5 0-1.7.4-2.9.7v1.4l44.6 2.9c-2.8 6.7-.2 12.3 3 17.5a118 118 0 0 1 17.1 60.3c.5 19.2.8 38.5 1.5 57.7.2 4.7-1.9 7-6.1 7.3-6 .5-11.8.9-17.7.6-1.7 0-4.3-2.2-4.8-3.8-6.5-21.7-12.9-43.3-18.8-65-2-7.4-3-15.2-3.8-22.8-1-11.4-5.8-21.5-9.8-32-2-5.2-4.4-10.3-5.9-15.7-1.6-5.8-4.6-9.2-11-10-8.8-1.3-9.4-2.9-8-12 4.1-27.4 8.6-54.8 11.8-82.3 2.1-17.7 2-35.6 3-53.3a36 36 0 0 1 3-12.4v35.7c-.1 3.5-.8 7-.9 10.5-.2 6.4-.1 12.8-.3 19.3l-1.5 50.7c0 3.2 0 6.5.8 10l3.1-10.2 1.3.4-2.3 12.7"/>
    <path fill="#FFF" d="M169.6 130.8L167 135c-6.2 0-12-.5-17.5.1-4.6.5-10 .7-12.4 6.2 0 .2-.2.4-.3.4-9.1 3.3-10.4 11.7-13.7 19.5a105 105 0 0 1-14.3 22.3c-7.8 10.2-16.4 19.9-24.7 29.8-4.2 5-8.5 9.2-15.9 9.7-3.9.3-5.3-1-5-3.8.6-4.1 2.1-8.2 3.5-12.3.9-2.6 2.1-5.2 3.3-7.8 2.8-6.5 3.6-13.8 10.3-18.8 3.3-2.5 4.7-8 9.2-10.3 3.5-1.8 7-3.5 10.3-5.6 4.6-3 5.4-7.8 3.7-13-1-2.6-1-6 0-8.7a39 39 0 0 1 29.7-25.8c4.7-1.2 8.7-2.2 13.9-.5 4.8 1.6 10.6.8 15.9.3 5.4-.5 7.2.7 6.8 6.2l-.1 7.9"/>
    <path fill="#000" d="M146.7 759.7c-8.3-.4-16.6-1-25-1-5.7-.2-11.5.3-17.2.4-3.2 0-6.5.5-9.4-.4-6.2-2-12.2-3.6-18.9-3-3.7.3-6-1.9-5.7-6.3.3-2.6-.4-5.3-.8-9.5l8 11.5c5.8-3.5 10.6-1.2 15.9 2 2.7 1.7 7 1.8 10.5 1.3 7.7-1.3 15.3-4 23-4.8 5.1-.4 10.5 1.3 15.5 2.9 2 .6 3.4 3.6 5 5.5l-.9 1.4M285.8 713.9l-2.4.7 3 10.3 2.4-.8-3-10.2m6.1-14l.8 25.8c0 5-.5 10.2-.1 15.2.4 4.9-1.2 7-5.3 6.3-2.6-7-5.3-13.5-7.3-20.3-.5-1.8 1-4.3 1.5-6.5l-1.1-.9-4 3.3c-9.3-6-14.6-13.4-14.9-21.8 4.7 4.3 9 8.2 13.1 12.4 1.7 1.7 2.9 3.2 5 .6.3-.5 1.1-.7 1.8-1 9.6-2.8 9.6-2.8 10.5-13.1M346 204.2c4.1 4.5 7.5 9.3 5.3 16-.3.7-.4 1.8-1 2.3-10.6 10.4-14 25.2-22.6 36.8-10.6 14.2-22.1 27.8-33.4 41.5-1 1.2-3.3 1.3-5 2h.2c.6-1.3 1-2.9 2-4 8.7-10.6 18.2-20.7 26.2-31.8a282.5 282.5 0 0 0 19.8-32.9c3-5.4 5.2-10.8 11-13.9 2.8-1.5 3.5-3.9 1.4-7-1.7-2.7-2.5-6-3.7-9h-.2z"/>
    <path fill="#000" d="M68.2 754.1c5.8 12.7 17.2 13.4 28.8 14.4 8.5.7 17 1.9 25.4 3.4 9 1.5 17.3 2.5 25-4.8 3-2.8 8.7-2.7 13.4-4 1.4 5.6-2 8.8-6.3 9.7-7 1.4-14.5 2.5-21.6 2-15.1-1.4-30.1-3.9-45.1-5.9-8.5-1.1-16.2-3.6-19.2-12.9l-.4-1.9M132.4 85.4l7-2.8c-3.4-.8-8-.6-8.7-2.3-1.2-2.5.2-6.3.5-10.2l-5.3-1.1-.1-1.1 7.2-1.1-4.2-3.8c5-1 7.7 1.2 9.6 5.2 2 4.2 4.6 8.2 6.6 12.4.5 1 0 3.6-1 4.2-2 1.5-2.3 6.4-6.6 4.1-1.6-.8-3-2-5-3.5M132.5 38.4a1 1 0 0 0-.4.3c3.7-3.4 7.8-3 13-.6l-9 1c0 .5-.2.9-.3 1.3l9.2 6.3c-1.4 4-2.2 7.5-4 10.6-.6 1.2-3.6 2.2-5 1.7-7.1-2.6-9-13.9-3.5-20.6M265.7 757.7c5 2 9.3 1.2 13.4-2.5 1.4-1.1 4-.9 6-1.2 3.3-.5 6.7-1.2 10.2-1.4 1.7 0 3.4.9 5.1 1.3-.8 2-1.3 5.6-2.6 6-10.8 2.7-21.8 4.5-32.1-2.2M147.7 737.5c-8-5.4-17.7-8.5-22.9-18l3.2-2.5c5.2 2.2 10.7 3.8 15.2 6.7 2.3 1.6 3.2 5.6 4.3 8.7.5 1.6 0 3.5 0 5.2l.2-.1zM73.7 353.8c-18.8 9.3-32.2 8.5-39.6.4 8.5 0 17.5.1 26.5 0 3.4-.1 6.9-.8 10.4-1.2.6 0 1.3.4 2.7.8"/>
    <path fill="#000" d="M147.6 737.6c2.7.3 4-.7 3.2-3.6l-2.3-8.3c1.7.4 3.5.3 4 1a49.5 49.5 0 0 1 5.1 28.3c0 1.5-2.4 2.9-3.6 4.1l-6.3-21.6-.1.1zM20.4 347L.6 328.7l1.5-2.3a50.7 50.7 0 0 0 40.4 16l-6 1 1.4 4.3-.8 1.2c-2.3-1-4.7-2-6.9-3.4-4-2.6-7.6-2-10 1.8l.2-.1zM234.3 725l13.8 16-11.9-1.7c-.2 4.3 2.4 7 9.8 8.7 4.9 1 9.8 1.8 14.8 2.7l-.3 1.4c-6.5-1.2-13.1-1.8-19.3-3.7-2.8-1-6-4.4-6.6-7.2-1-5-.3-10.2-.3-16.1M119.5 743.7c-5.7 2.2-10.4 4.4-15.3 5.9-2.4.7-5.1 0-7.7-.2l1.5-8c7 9 13.9 1.3 21.5 2.3M256.3 686.9c-1.5 7-4.3 8.4-12.5 6l6.4-1.6v-.7l-4.5-.8-.1-1.3 10.7-1.6M118.8 764.7l18.8 2.6-.4 2.8-18.8-2.8.4-2.6M238.5 248.3c3-5.8 9.4-5.2 14.3-7.5-2.9 5.8-9 5.7-14.3 7.5M61.7 344.2l21.5-1v1.7H61.7v-.7"/>
    <path fill="#000" d="M20.3 347.2c4.2.6 8 1.9 11.5 6.4-6.7 1-8.4-3.8-11.4-6.5h-.1M119 493.7l2.6 9.3c-2-.8-4.2-1.1-4.3-1.8-.4-2.4-.2-4.9-.2-7.4l2-.1"/>
    <path fill="#FFF" d="M143.8 341.5v9.5c-5.1-4-4-6.9.3-9.2l-.3-.3M127.3 228.7l8.5-8.9-.8-1-6.5 4.5 3.3-14c3.9.7 6.7 2.7 8.4 7.5 2.5 6.8 9.4 8.6 15.6 10.7l-11 13.3-3.5-2.5 1.4 9.2-8.1-.6 5 4.4-7.9 5.3 3.7.8-11.4 22.2-3-24.4-4.5 33.2c-14.6-23.5-34.2-32-60-24.6 19.8-26.7 36-56.2 62-79l1.4 7.6-4.7-.7 8.1 27-5.1-9.1c.6 13.3.4 25.7 4.7 39.5l7.8-8.6 1.6 1.6.7-.5-4.4-8.6 6.1 3.2.8-1.1-4.8-2.8 5-1.2.1-1.2-8.5-1.2M346.2 204.1c1.2 3 2 6.4 3.7 9 2 3.2 1.4 5.6-1.4 7.1-5.8 3-8 8.5-11 14-6 11.2-12.3 22.4-19.8 32.8-8 11.1-17.5 21.2-26.3 31.8-1 1.1-1.3 2.7-2 4l-4 4.4-1.4-.8c1.5-2.9 3.3-5.7 4.6-8.7 1-2.2 2.4-5 1.8-7-1.2-4-.6-7.4 1.3-10.9 6-11.3 11.7-23 18.2-34a205 205 0 0 1 15.5-22.3c5.6-7.2 4.5-11.9-4.3-15.5-2.3-1-5-1.2-6.8-2.7-2.2-1.7-3.5-4.3-5.3-6.6l1.6-1.7 20.8 7 1.1-.8c-1-1.4-1.6-3-2.8-4-.9-.7-2.4-.5-3.4-1l-31.1-18c-1.7-1-3.1-3-3.9-4.7-1.3-3.2.1-5.2 3.6-5.2 5.7 0 10.9 1.4 15.5 5.1 9.8 7.9 19.9 15.3 29.8 23 2.1 1.6 4 3.8 6 5.7"/>
    <path fill="#FFF" d="M77.3 279.3c-5.7-1.6-5.5-1.6-5 1.6a7 7 0 0 1-1 4.4c-2.2 3.3-4.9 6.4-7.3 9.5l1.5 1.1 11.8-16.6m-14.5 4.2l.9.1c.1.4.3 1.3.1 1.3-4 1.8-3.4 4.7-2 8.1l6.6-11.4-5.6 2c.5-3.2 7-1.6 5.1-7.1H75c-2.6-1-5.3-1.5-7.7-.8-3.7 1-5.8 3.6-4.5 7.8m54.6 21.5c-30.2-6-59.7-3.9-89.8-.8l.6 13.3-10-1.6c.7-2.3 1.2-4.6 2.3-6.5 3.8-6.4 7.8-12.7 11.9-19a40.6 40.6 0 0 1 33.8-19c19.9-1.1 36.7 4.8 49 21.5 3.1 4.3 2.9 8.3 2.2 12.1"/>
    <path fill="#000" d="M127.3 228.7l8.5 1.2v1.2l-5.1 1.2 4.8 2.8-.8 1-6-3.1 4.3 8.6-.7.5-1.6-1.6-7.8 8.6c-4.3-13.8-4-26.2-4.7-39.5l5.1 9.1 4 10"/>
    <path fill="#FFF" d="M270.7 310.4l-1 1c-2.8.4-16-7.8-16.5-10.4-.2-.8.3-2.6.7-2.6 1.6-.3 3.8-.7 4.8.2 2.3 2 3.8 4.1 7.6 3.6 1.1-.2 3 5.4 4.4 8.2M275.4 301.5l6-1.8c.4 2 1.3 4.2 1 6.1-.4 2.3-2 4.3-3.7 7.8l-2-10.7-1.3-1.4M52 304.6h11.4l.4 1.6c-2.6 1.1-5.2 2.6-8 3.1-.7.2-2-2.4-3.9-4.7M71.5 237.8c-2.8 1.5-4.4 2.6-6 2.9-1 .1-2.1-1.3-3.2-2 1.6-1.4 3-3.1 4.8-4.2.4-.3 2 1.5 4.4 3.3M98.1 306.7c-3.4 3.3-6 .3-9-.8v-1.6l9 .6v1.8M134.7 491l7.7-2.6-5 9h-1.8l-.8-6.4h-.1z"/>
    <path fill="#FFF" d="M134.8 491c-1-1.8-2-3.6-3.9-6.6l10.2 1-6.4 5.7.1-.1M259 526.6l2.3 4.8.5 1c3 10.4 6.1 20.9 8.7 31.4.4 1.6-1.4 3.8-2.2 5.7-1.1-1.5-2.3-3-3.2-4.6-4-6.9-7.8-13.8-11.7-20.8-1.4-2.4-2.7-4.9-4.2-7.1-3-4.4-.5-7.5 2.4-10 2-1.6 5.2-2 7.8-3l-.4 2.6M285.8 713.9l3 10.2-2.4.8-3-10.3 2.4-.7"/>
    <path fill="#000" d="M77.3 279.3l-11.8 16.6-1.5-1c2.4-3.2 5-6.3 7.3-9.6a7 7 0 0 0 1-4.4c-.5-3.2-.7-3.2 5-1.6"/>
    <path fill="#000" d="M62.8 283.5c-1.3-4.2.8-6.8 4.6-7.8 2.3-.7 5-.2 7.6.8h-7c1.9 5.5-4.7 4-5.2 7zM62.8 283.5l5.6-2-6.6 11.5c-1.4-3.4-2-6.3 2-8 .2-.1 0-1-.1-1.4h-.9"/>
  </g>
</svg>
